<svg height="600" width="2400" xmlns="http://www.w3.org/2000/svg">
<title>Your Diagram Title</title>
<!-- Generated with SankeyMATIC: 9/12/2023, 1:22:18 PM -->
<rect height="600" width="2400" fill="#ffffff"></rect>
<g transform="translate(12,18)">
<g id="sankey_flows">
<path id="flow39" d="M1379.36842 162.06986v282L1494.94737 406.09922v-282z" fill="#ff7f0e" stroke-width="0.5" stroke="#ff7f0e" opacity="0.45"><title>INS_test_100_1229_307 → INS_test_100_1536_384: 500</title></path>
<path id="flow40" d="M1503.94737 124.09922v282L1619.52632 370.12686v-282z" fill="#2ca02c" stroke-width="0.5" stroke="#2ca02c" opacity="0.45"><title>INS_test_100_1536_384 → INS_test_100_1946_486: 500</title></path>
<path id="flow41" d="M1628.52632 88.12686v282L1744.10526 344.152v-282z" fill="#d62728" stroke-width="0.5" stroke="#d62728" opacity="0.45"><title>INS_test_100_1946_486 → INS_test_100_2458_614: 500</title></path>
<path id="flow42" d="M1753.10526 62.152v282L1868.68421 338.1739v-282z" fill="#9467bd" stroke-width="0.5" stroke="#9467bd" opacity="0.45"><title>INS_test_100_2458_614 → INS_test_100_3072_768: 500</title></path>
<path id="flow43" d="M1877.68421 56.1739v282L1993.26316 335.19191v-282z" fill="#8c564b" stroke-width="0.5" stroke="#8c564b" opacity="0.45"><title>INS_test_100_3072_768 → INS_test_100_3840_960: 500</title></path>
<path id="flow44" d="M2002.26316 53.19191v282L2117.84211 335.20551v-282z" fill="#e377c2" stroke-width="0.5" stroke="#e377c2" opacity="0.45"><title>INS_test_100_3840_960 → INS_test_100_4813_1203: 500</title></path>
<path id="flow45" d="M2126.84211 53.20551v282L2242.42105 335.21428v-282z" fill="#7f7f7f" stroke-width="0.5" stroke="#7f7f7f" opacity="0.45"><title>INS_test_100_4813_1203 → INS_test_100_6042_1510: 500</title></path>
<path id="flow46" d="M2251.42105 53.21428v282L2367 337.21795v-282z" fill="#bcbd22" stroke-width="0.5" stroke="#bcbd22" opacity="0.45"><title>INS_test_100_6042_1510 → INS_test_100_7578_1894: 500</title></path>
<path id="flow38" d="M1254.78947 198.564v281.436L1370.36842 444.06986v-281.436z" fill="#1f77b4" stroke-width="0.5" stroke="#1f77b4" opacity="0.45"><title>INS_test_100_973_243 → INS_test_100_1229_307: 499</title></path>
<path id="flow36" d="M1130.21053 228.692v280.308L1245.78947 480v-280.308z" fill="#7f7f7f" stroke-width="0.5" stroke="#7f7f7f" opacity="0.45"><title>INS_test_100_768_192 → INS_test_100_973_243: 497</title></path>
<path id="flow33" d="M1005.63158 240.82v279.18L1121.21053 509v-279.18z" fill="#8c564b" stroke-width="0.5" stroke="#8c564b" opacity="0.45"><title>INS_test_100_615_153 → INS_test_100_768_192: 495</title></path>
<path id="flow29" d="M881.05263 242.512v277.488L996.63158 520v-277.488z" fill="#d62728" stroke-width="0.5" stroke="#d62728" opacity="0.45"><title>INS_test_100_461_115 → INS_test_100_615_153: 492</title></path>
<path id="flow25" d="M756.47368 250.39067v270.72L872.05263 520v-270.72z" fill="#ff7f0e" stroke-width="0.5" stroke="#ff7f0e" opacity="0.45"><title>INS_test_100_359_89 → INS_test_100_461_115: 480</title></path>
<path id="flow21" d="M631.89474 257.31733v263.952L747.47368 521.11067v-263.952z" fill="#17becf" stroke-width="0.5" stroke="#17becf" opacity="0.45"><title>INS_test_100_256_64 → INS_test_100_359_89: 468</title></path>
<path id="flow17" d="M507.31579 261.688v258.312L622.89474 521.26933v-258.312z" fill="#7f7f7f" stroke-width="0.5" stroke="#7f7f7f" opacity="0.45"><title>INS_test_100_205_51 → INS_test_100_256_64: 458</title></path>
<path id="flow13" d="M382.73684 285.376v234.624L498.31579 520v-234.624z" fill="#8c564b" stroke-width="0.5" stroke="#8c564b" opacity="0.45"><title>INS_test_100_154_38 → INS_test_100_205_51: 416</title></path>
<path id="flow9" d="M258.15789 333.936v186.12L373.73684 520v-186.12z" fill="#d62728" stroke-width="0.5" stroke="#d62728" opacity="0.45"><title>INS_test_100_103_25 → INS_test_100_154_38: 330</title></path>
<path id="flow0" d="M9 133.392v173.712L124.57895 215.712v-173.712z" fill="#17becf" stroke-width="0.5" stroke="#17becf" opacity="0.45"><title>Generated → SEC_test_100_52_12: 308</title></path>
<path id="flow1" d="M9 307.104v108.288L124.57895 562v-108.288z" fill="#17becf" stroke-width="0.5" stroke="#17becf" opacity="0.45"><title>Generated → INS_test_100_52_12: 192</title></path>
<path id="flow3" d="M133.57895 116.448v99.264L249.15789 421.92v-99.264z" fill="#1f77b4" stroke-width="0.5" stroke="#1f77b4" opacity="0.45"><title>SEC_test_100_52_12 → INS_test_100_103_25: 176</title></path>
<path id="flow5" d="M133.57895 463.864v98.136L249.15789 520.056v-98.136z" fill="#ff7f0e" stroke-width="0.5" stroke="#ff7f0e" opacity="0.45"><title>INS_test_100_52_12 → INS_test_100_103_25: 174</title></path>
<path id="flow2" d="M133.57895 42v74.448L249.15789 74.504v-74.448z" fill="#1f77b4" stroke-width="0.5" stroke="#1f77b4" opacity="0.45"><title>SEC_test_100_52_12 → SEC_test_100_103_25: 132</title></path>
<path id="flow7" d="M258.15789 33.896v50.76L373.73684 333.88v-50.76z" fill="#2ca02c" stroke-width="0.5" stroke="#2ca02c" opacity="0.45"><title>SEC_test_100_103_25 → INS_test_100_154_38: 90</title></path>
<path id="flow6" d="M258.15789 0.056v33.84L373.73684 33.84v-33.84z" fill="#2ca02c" stroke-width="0.5" stroke="#2ca02c" opacity="0.45"><title>SEC_test_100_103_25 → SEC_test_100_154_38: 60</title></path>
<path id="flow11" d="M382.73684 18.048v27.072L498.31579 285.376v-27.072z" fill="#9467bd" stroke-width="0.5" stroke="#9467bd" opacity="0.45"><title>SEC_test_100_154_38 → INS_test_100_205_51: 48</title></path>
<path id="flow10" d="M382.73684 0v18.048L498.31579 18.048v-18.048z" fill="#9467bd" stroke-width="0.5" stroke="#9467bd" opacity="0.45"><title>SEC_test_100_154_38 → SEC_test_100_205_51: 32</title></path>
<path id="flow14" d="M507.31579 0v12.972L622.89474 14.24133v-12.972z" fill="#e377c2" stroke-width="0.5" stroke="#e377c2" opacity="0.45"><title>SEC_test_100_205_51 → SEC_test_100_256_64: 23</title></path>
<path id="flow8" d="M258.15789 322.656v11.28L373.73684 45.12v-11.28z" fill="#d62728" stroke-width="0.5" stroke="#d62728" opacity="0.45"><title>INS_test_100_103_25 → SEC_test_100_154_38: 20</title></path>
<path id="flow4" d="M133.57895 453.712v10.152L249.15789 84.656v-10.152z" fill="#ff7f0e" stroke-width="0.5" stroke="#ff7f0e" opacity="0.45"><title>INS_test_100_52_12 → SEC_test_100_103_25: 18</title></path>
<path id="flow18" d="M631.89474 1.26933v9.024L747.47368 10.13467v-9.024z" fill="#bcbd22" stroke-width="0.5" stroke="#bcbd22" opacity="0.45"><title>SEC_test_100_256_64 → SEC_test_100_359_89: 16</title></path>
<path id="flow15" d="M507.31579 12.972v7.332L622.89474 262.95733v-7.332z" fill="#e377c2" stroke-width="0.5" stroke="#e377c2" opacity="0.45"><title>SEC_test_100_205_51 → INS_test_100_256_64: 13</title></path>
<path id="flow19" d="M631.89474 10.29333v7.332L747.47368 257.15867v-7.332z" fill="#bcbd22" stroke-width="0.5" stroke="#bcbd22" opacity="0.45"><title>SEC_test_100_256_64 → INS_test_100_359_89: 13</title></path>
<path id="flow23" d="M756.47368 4.49467v7.332L872.05263 249.28v-7.332z" fill="#1f77b4" stroke-width="0.5" stroke="#1f77b4" opacity="0.45"><title>SEC_test_100_359_89 → INS_test_100_461_115: 13</title></path>
<path id="flow16" d="M507.31579 258.304v3.384L622.89474 17.62533v-3.384z" fill="#7f7f7f" stroke-width="0.5" stroke="#7f7f7f" opacity="0.45"><title>INS_test_100_205_51 → SEC_test_100_256_64: 6</title></path>
<path id="flow22" d="M756.47368 1.11067v3.384L872.05263 3.384v-3.384z" fill="#1f77b4" stroke-width="0.5" stroke="#1f77b4" opacity="0.45"><title>SEC_test_100_359_89 → SEC_test_100_461_115: 6</title></path>
<path id="flow12" d="M382.73684 283.12v2.256L498.31579 20.304v-2.256z" fill="#8c564b" stroke-width="0.5" stroke="#8c564b" opacity="0.45"><title>INS_test_100_154_38 → SEC_test_100_205_51: 4</title></path>
<path id="flow27" d="M881.05263 1.692v2.256L996.63158 242.512v-2.256z" fill="#2ca02c" stroke-width="0.5" stroke="#2ca02c" opacity="0.45"><title>SEC_test_100_461_115 → INS_test_100_615_153: 4</title></path>
<path id="flow20" d="M631.89474 255.62533v1.692L747.47368 11.82667v-1.692z" fill="#17becf" stroke-width="0.5" stroke="#17becf" opacity="0.45"><title>INS_test_100_256_64 → SEC_test_100_359_89: 3</title></path>
<path id="flow26" d="M881.05263 0v1.692L996.63158 1.692v-1.692z" fill="#2ca02c" stroke-width="0.5" stroke="#2ca02c" opacity="0.45"><title>SEC_test_100_461_115 → SEC_test_100_615_153: 3</title></path>
<path id="flow31" d="M1005.63158 0.564v1.692L1121.21053 229.82v-1.692z" fill="#9467bd" stroke-width="0.5" stroke="#9467bd" opacity="0.45"><title>SEC_test_100_615_153 → INS_test_100_768_192: 3</title></path>
<path id="flow34" d="M1130.21053 0v1.128L1245.78947 199.692v-1.128z" fill="#e377c2" stroke-width="0.5" stroke="#e377c2" opacity="0.45"><title>SEC_test_100_768_192 → INS_test_100_973_243: 2</title></path>
<path id="flow24" d="M756.47368 249.82667v0.564L872.05263 3.948v-0.564z" fill="#ff7f0e" stroke-width="0.5" stroke="#ff7f0e" opacity="0.45"><title>INS_test_100_359_89 → SEC_test_100_461_115: 1</title></path>
<path id="flow28" d="M881.05263 241.948v0.564L996.63158 2.256v-0.564z" fill="#d62728" stroke-width="0.5" stroke="#d62728" opacity="0.45"><title>INS_test_100_461_115 → SEC_test_100_615_153: 1</title></path>
<path id="flow30" d="M1005.63158 0v0.564L1121.21053 0.564v-0.564z" fill="#9467bd" stroke-width="0.5" stroke="#9467bd" opacity="0.45"><title>SEC_test_100_615_153 → SEC_test_100_768_192: 1</title></path>
<path id="flow32" d="M1005.63158 240.256v0.564L1121.21053 1.128v-0.564z" fill="#8c564b" stroke-width="0.5" stroke="#8c564b" opacity="0.45"><title>INS_test_100_615_153 → SEC_test_100_768_192: 1</title></path>
<path id="flow35" d="M1130.21053 228.128v0.564L1245.78947 0.564v-0.564z" fill="#7f7f7f" stroke-width="0.5" stroke="#7f7f7f" opacity="0.45"><title>INS_test_100_768_192 → SEC_test_100_973_243: 1</title></path>
<path id="flow37" d="M1254.78947 0v0.564L1370.36842 162.63386v-0.564z" fill="#1f77b4" stroke-width="0.5" stroke="#1f77b4" opacity="0.45"><title>SEC_test_100_973_243 → INS_test_100_1229_307: 1</title></path>
</g>
<g id="sankey_nodes">
<g class="node">
<rect id="r0" class="for_r0" x="0" y="133.392" height="282" width="9" fill="#17becf" fill-opacity="1"><title>Generated:
500</title></rect>
</g>
<g class="node">
<rect id="r1" class="for_r1" x="124.57895" y="42" height="173.712" width="9" fill="#1f77b4" fill-opacity="1"><title>SEC_test_100_52_12:
308</title></rect>
</g>
<g class="node">
<rect id="r2" class="for_r2" x="124.57895" y="453.712" height="108.288" width="9" fill="#ff7f0e" fill-opacity="1"><title>INS_test_100_52_12:
192</title></rect>
</g>
<g class="node">
<rect id="r3" class="for_r3" x="249.15789" y="0.056" height="84.6" width="9" fill="#2ca02c" fill-opacity="1"><title>SEC_test_100_103_25:
150</title></rect>
</g>
<g class="node">
<rect id="r4" class="for_r4" x="249.15789" y="322.656" height="197.4" width="9" fill="#d62728" fill-opacity="1"><title>INS_test_100_103_25:
350</title></rect>
</g>
<g class="node">
<rect id="r5" class="for_r5" x="373.73684" y="0" height="45.12" width="9" fill="#9467bd" fill-opacity="1"><title>SEC_test_100_154_38:
80</title></rect>
</g>
<g class="node">
<rect id="r6" class="for_r6" x="373.73684" y="283.12" height="236.88" width="9" fill="#8c564b" fill-opacity="1"><title>INS_test_100_154_38:
420</title></rect>
</g>
<g class="node">
<rect id="r7" class="for_r7" x="498.31579" y="0" height="20.304" width="9" fill="#e377c2" fill-opacity="1"><title>SEC_test_100_205_51:
36</title></rect>
</g>
<g class="node">
<rect id="r8" class="for_r8" x="498.31579" y="258.304" height="261.696" width="9" fill="#7f7f7f" fill-opacity="1"><title>INS_test_100_205_51:
464</title></rect>
</g>
<g class="node">
<rect id="r9" class="for_r9" x="622.89474" y="1.26933" height="16.356" width="9" fill="#bcbd22" fill-opacity="1"><title>SEC_test_100_256_64:
29</title></rect>
</g>
<g class="node">
<rect id="r10" class="for_r10" x="622.89474" y="255.62533" height="265.644" width="9" fill="#17becf" fill-opacity="1"><title>INS_test_100_256_64:
471</title></rect>
</g>
<g class="node">
<rect id="r11" class="for_r11" x="747.47368" y="1.11067" height="10.716" width="9" fill="#1f77b4" fill-opacity="1"><title>SEC_test_100_359_89:
19</title></rect>
</g>
<g class="node">
<rect id="r12" class="for_r12" x="747.47368" y="249.82667" height="271.284" width="9" fill="#ff7f0e" fill-opacity="1"><title>INS_test_100_359_89:
481</title></rect>
</g>
<g class="node">
<rect id="r13" class="for_r13" x="872.05263" y="0" height="3.948" width="9" fill="#2ca02c" fill-opacity="1"><title>SEC_test_100_461_115:
7</title></rect>
</g>
<g class="node">
<rect id="r14" class="for_r14" x="872.05263" y="241.948" height="278.052" width="9" fill="#d62728" fill-opacity="1"><title>INS_test_100_461_115:
493</title></rect>
</g>
<g class="node">
<rect id="r15" class="for_r15" x="996.63158" y="0" height="2.256" width="9" fill="#9467bd" fill-opacity="1"><title>SEC_test_100_615_153:
4</title></rect>
</g>
<g class="node">
<rect id="r16" class="for_r16" x="996.63158" y="240.256" height="279.744" width="9" fill="#8c564b" fill-opacity="1"><title>INS_test_100_615_153:
496</title></rect>
</g>
<g class="node">
<rect id="r17" class="for_r17" x="1121.21053" y="0" height="1.128" width="9" fill="#e377c2" fill-opacity="1" transform="translate(0,0)"><title>SEC_test_100_768_192:
2</title></rect>
</g>
<g class="node">
<rect id="r18" class="for_r18" x="1121.21053" y="239.128" height="280.872" width="9" fill="#7f7f7f" fill-opacity="1" transform="translate(0,-11)"><title>INS_test_100_768_192:
498</title></rect>
</g>
<g class="node">
<rect id="r19" class="for_r19" x="1245.78947" y="41.564" height="281.436" width="9" fill="#bcbd22" fill-opacity="1" transform="translate(0,157)"><title>INS_test_100_973_243:
499</title></rect>
</g>
<g class="node">
<rect id="r20" class="for_r20" x="1245.78947" y="561" height="1" width="9" fill="#17becf" fill-opacity="1" transform="translate(0,-561)"><title>SEC_test_100_973_243:
1</title></rect>
</g>
<g class="node">
<rect id="r21" class="for_r21" x="1370.36842" y="42.06986" height="282" width="9" fill="#1f77b4" fill-opacity="1" transform="translate(0,120)"><title>INS_test_100_1229_307:
500</title></rect>
</g>
<g class="node">
<rect id="r22" class="for_r22" x="1494.94737" y="42.09922" height="282" width="9" fill="#ff7f0e" fill-opacity="1" transform="translate(0,82)"><title>INS_test_100_1536_384:
500</title></rect>
</g>
<g class="node">
<rect id="r23" class="for_r23" x="1619.52632" y="42.12686" height="282" width="9" fill="#2ca02c" fill-opacity="1" transform="translate(0,46)"><title>INS_test_100_1946_486:
500</title></rect>
</g>
<g class="node">
<rect id="r24" class="for_r24" x="1744.10526" y="42.152" height="282" width="9" fill="#d62728" fill-opacity="1" transform="translate(0,20)"><title>INS_test_100_2458_614:
500</title></rect>
</g>
<g class="node">
<rect id="r25" class="for_r25" x="1868.68421" y="42.1739" height="282" width="9" fill="#9467bd" fill-opacity="1" transform="translate(0,14)"><title>INS_test_100_3072_768:
500</title></rect>
</g>
<g class="node">
<rect id="r26" class="for_r26" x="1993.26316" y="42.19191" height="282" width="9" fill="#8c564b" fill-opacity="1" transform="translate(0,11)"><title>INS_test_100_3840_960:
500</title></rect>
</g>
<g class="node">
<rect id="r27" class="for_r27" x="2117.84211" y="42.20551" height="282" width="9" fill="#e377c2" fill-opacity="1" transform="translate(0,11)"><title>INS_test_100_4813_1203:
500</title></rect>
</g>
<g class="node">
<rect id="r28" class="for_r28" x="2242.42105" y="42.21428" height="282" width="9" fill="#7f7f7f" fill-opacity="1" transform="translate(0,11)"><title>INS_test_100_6042_1510:
500</title></rect>
</g>
<g class="node">
<rect id="r29" class="for_r29" x="2367" y="42.21795" height="282" width="9" fill="#bcbd22" fill-opacity="1" transform="translate(0,13)"><title>INS_test_100_7578_1894:
500</title></rect>
</g>
</g>
<g id="sankey_labels" font-family="sans-serif" font-size="10px" font-weight="400" fill="#000000">
<text text-anchor="middle" x="1188" y="577" font-size="11px" font-weight="400" fill="rgb(127, 127, 127)">Made with SankeyMATIC</text>
<text id="label0" class="for_r0" text-anchor="start" x="13.76933" y="274.392" dy="4.55">Generated</text>
<text id="label1" class="for_r1" text-anchor="end" x="119.80961" y="128.856" dy="4.55">SEC_test_100_52_12</text>
<text id="label2" class="for_r2" text-anchor="end" x="119.80961" y="507.856" dy="4.55">INS_test_100_52_12</text>
<text id="label3" class="for_r3" text-anchor="end" x="244.38856" y="42.356" dy="4.55">SEC_test_100_103_25</text>
<text id="label4" class="for_r4" text-anchor="end" x="244.38856" y="421.356" dy="4.55">INS_test_100_103_25</text>
<text id="label5" class="for_r5" text-anchor="end" x="368.96751" y="22.56" dy="4.55">SEC_test_100_154_38</text>
<text id="label6" class="for_r6" text-anchor="end" x="368.96751" y="401.56" dy="4.55">INS_test_100_154_38</text>
<text id="label7" class="for_r7" text-anchor="end" x="493.54646" y="10.152" dy="4.55">SEC_test_100_205_51</text>
<text id="label8" class="for_r8" text-anchor="end" x="493.54646" y="389.152" dy="4.55">INS_test_100_205_51</text>
<text id="label9" class="for_r9" text-anchor="end" x="618.1254" y="9.44733" dy="4.55">SEC_test_100_256_64</text>
<text id="label10" class="for_r10" text-anchor="end" x="618.1254" y="388.44733" dy="4.55">INS_test_100_256_64</text>
<text id="label11" class="for_r11" text-anchor="end" x="742.70435" y="6.46867" dy="4.55">SEC_test_100_359_89</text>
<text id="label12" class="for_r12" text-anchor="end" x="742.70435" y="385.46867" dy="4.55">INS_test_100_359_89</text>
<text id="label13" class="for_r13" text-anchor="end" x="867.2833" y="1.974" dy="4.55">SEC_test_100_461_115</text>
<text id="label14" class="for_r14" text-anchor="end" x="867.2833" y="380.974" dy="4.55">INS_test_100_461_115</text>
<text id="label15" class="for_r15" text-anchor="end" x="991.86225" y="1.128" dy="4.55">SEC_test_100_615_153</text>
<text id="label16" class="for_r16" text-anchor="end" x="991.86225" y="380.128" dy="4.55">INS_test_100_615_153</text>
<text id="label17" class="for_r17" text-anchor="end" x="1116.44119" y="0.564" dy="4.55" transform="translate(0,0)">SEC_test_100_768_192</text>
<text id="label18" class="for_r18" text-anchor="end" x="1116.44119" y="379.564" dy="4.55" transform="translate(0,-11)">INS_test_100_768_192</text>
<text id="label19" class="for_r19" text-anchor="end" x="1241.02014" y="182.282" dy="4.55" transform="translate(0,157)">INS_test_100_973_243</text>
<text id="label20" class="for_r20" text-anchor="end" x="1241.02014" y="561.5" dy="4.55" transform="translate(0,-561)">SEC_test_100_973_243</text>
<text id="label21" class="for_r21" text-anchor="end" x="1365.59909" y="183.06986" dy="4.55" transform="translate(0,120)">INS_test_100_1229_307</text>
<text id="label22" class="for_r22" text-anchor="end" x="1490.17803" y="183.09922" dy="4.55" transform="translate(0,82)">INS_test_100_1536_384</text>
<text id="label23" class="for_r23" text-anchor="end" x="1614.75698" y="183.12686" dy="4.55" transform="translate(0,46)">INS_test_100_1946_486</text>
<text id="label24" class="for_r24" text-anchor="end" x="1739.33593" y="183.152" dy="4.55" transform="translate(0,20)">INS_test_100_2458_614</text>
<text id="label25" class="for_r25" text-anchor="end" x="1863.91488" y="183.1739" dy="4.55" transform="translate(0,14)">INS_test_100_3072_768</text>
<text id="label26" class="for_r26" text-anchor="end" x="1988.49382" y="183.19191" dy="4.55" transform="translate(0,11)">INS_test_100_3840_960</text>
<text id="label27" class="for_r27" text-anchor="end" x="2113.07277" y="183.20551" dy="4.55" transform="translate(0,11)">INS_test_100_4813_1203</text>
<text id="label28" class="for_r28" text-anchor="end" x="2237.65172" y="183.21428" dy="4.55" transform="translate(0,11)">INS_test_100_6042_1510</text>
<text id="label29" class="for_r29" text-anchor="end" x="2362.23067" y="183.21795" dy="4.55" transform="translate(0,13)">INS_test_100_7578_1894</text>
</g>
</g></svg>